<svg width="112" height="32" viewBox="0 0 112 32" fill="none" xmlns="http://www.w3.org/2000/svg">
<g clip-path="url(#clip0_87_6848)">
<path d="M10.1592 4.12354H17.76C15.9199 9.95584 14.0233 15.774 12.1974 21.6204C11.8718 22.4254 12.0983 23.5834 13.0183 23.8658C14.4054 24.0353 15.7925 23.8941 17.1938 23.9364C19.3169 17.3415 21.4117 10.7325 23.5207 4.13766C26.394 4.13766 29.2531 4.13766 32.1264 4.13766C30.0599 6.38302 27.9509 8.60015 25.8844 10.8455L29.2248 9.94172C27.2998 15.9435 25.389 21.9311 23.4641 27.9188C18.496 27.9329 13.542 27.9188 8.57393 27.9329C7.24344 27.9753 5.75725 27.5234 5.00708 26.3654C4.0446 24.8826 4.15784 22.9761 4.68154 21.3521C6.49327 15.5904 8.3333 9.85699 10.1592 4.12354Z" fill="white"/>
<path d="M34.4618 4.12358C40.0527 4.12358 45.6577 4.12358 51.2486 4.12358C52.565 4.06709 53.9804 4.51899 54.7588 5.63461C55.8346 7.1174 55.693 9.09445 55.141 10.7608C54.4616 12.7238 54.0653 14.842 52.7914 16.5366C51.2628 18.6267 48.8707 20.3213 46.1814 20.2789C43.4214 20.3072 40.6613 20.2507 37.9013 20.293C37.1086 22.835 36.2877 25.3486 35.4809 27.8906C32.9615 27.9047 30.4562 27.9047 27.9368 27.8906C29.8617 21.9029 31.7725 15.9153 33.6975 9.92764C34.6175 10.2383 35.5234 10.5349 36.4434 10.8456C35.7923 8.60019 35.1129 6.36894 34.4618 4.12358ZM41.7795 8.13417C40.9161 10.8456 40.0385 13.5569 39.1893 16.2824C40.6047 16.2683 42.0343 16.3107 43.4639 16.2824C44.9217 16.3531 46.1531 15.1809 46.5494 13.8535C46.9599 12.5684 47.4412 11.2975 47.7384 9.98412C47.9366 9.1933 47.4129 8.20478 46.5353 8.16241C44.95 8.07768 43.3648 8.14829 41.7795 8.13417Z" fill="white"/>
<path d="M61.4821 4.12354C64.0015 4.12354 66.5068 4.12354 69.0121 4.12354C68.2053 6.66546 67.3843 9.20738 66.5775 11.7634C69.5641 11.7917 72.5506 11.7069 75.5371 11.8058C77.1365 11.8623 78.5519 13.0909 78.9058 14.6443C79.5003 16.8896 78.3679 19.0362 77.7735 21.1544C76.7119 24.8261 73.3008 28.1588 69.2951 27.9188C64.1572 27.9046 59.0334 27.9188 53.8954 27.9046C56.4149 19.9823 58.9485 12.0459 61.4821 4.12354ZM65.3037 15.774C64.4261 18.4854 63.5769 21.2109 62.6993 23.9223C64.2421 23.9082 65.7708 23.9647 67.3136 23.9082C68.6865 23.8093 69.7481 22.6231 70.1161 21.3521C70.4841 20.1377 70.937 18.9514 71.2343 17.7087C71.4749 16.9179 70.9795 15.8446 70.0736 15.8023C68.4884 15.7175 66.8889 15.8023 65.3037 15.774Z" fill="white"/>
<path d="M86.9311 4.08118C89.4506 4.08118 91.9559 4.08118 94.4611 4.08118C93.8525 6.02999 93.2156 7.96467 92.607 9.9276C90.0875 9.95585 87.5681 9.94172 85.0486 9.94172C85.6856 7.97879 86.3084 6.02999 86.9311 4.08118Z" fill="white"/>
<path d="M98.7499 4.08123C101.269 4.06711 103.775 4.08123 106.294 4.08123C105.487 6.60903 104.68 9.15095 103.86 11.6929C104.992 11.6929 106.124 11.6929 107.257 11.6929C106.846 13.0344 106.407 14.3619 105.983 15.7035C104.85 15.7035 103.718 15.7035 102.572 15.7035C101.963 17.7088 101.199 19.6717 100.76 21.7335C100.533 22.5243 100.802 23.5693 101.708 23.7811C102.883 24.0636 104.128 23.8941 105.346 23.9365C104.935 25.2357 104.525 26.549 104.1 27.8341C101.623 27.82 99.1321 27.8623 96.6551 27.82C95.2821 27.8059 93.8809 27.0574 93.3005 25.7723C92.5221 24.2189 92.8335 22.3972 93.3713 20.8297C95.183 15.2516 96.9665 9.67346 98.7499 4.08123Z" fill="white"/>
<path d="M83.9163 13.571C86.4358 13.571 88.9411 13.5569 91.4605 13.571C89.9318 18.3301 88.4174 23.075 86.9029 27.8199C84.3834 27.8199 81.8781 27.8199 79.3729 27.8199C80.859 23.075 82.3877 18.3301 83.9163 13.571Z" fill="white"/>
</g>
<defs>
<clipPath id="clip0_87_6848">
<rect width="110.515" height="32" fill="white" transform="translate(0.506042)"/>
</clipPath>
</defs>
</svg>
