<svg width="74" height="37" viewBox="0 0 74 37" fill="none" xmlns="http://www.w3.org/2000/svg">
<path d="M56.9062 4.55299L56.9017 4.55904L49.5086 3.66591L44.4536 0.951791L44.2657 0.852051L27.4081 15.8311L21.2258 7.28676L10.1445 7.18097L0.714844 16.5822H73.285L56.9062 4.55299ZM20.9121 7.88822L22.9896 10.7595L22.9759 10.7459L20.8697 12.8465L11.4901 7.79906L20.9121 7.88822ZM17.73 15.9777H2.17861L10.3233 7.858L20.4227 13.2923L17.73 15.9777ZM18.5861 15.9777L20.9788 13.5915L25.411 15.9777H18.5861ZM26.6884 15.9777L21.4258 13.1457L23.3381 11.2401L26.7657 15.9777H26.6884ZM57.0138 5.38264L68.7179 13.9799L55.7092 6.9951L57.0138 5.38264ZM56.4532 5.11365L55.1667 6.70495L50.9724 4.45174L56.4532 5.11365ZM28.1537 15.9777L44.1293 1.78295L47.4327 15.9777H28.1537ZM44.7567 1.8026L54.7803 7.184L47.9691 15.6075L44.7567 1.8026ZM48.4479 15.9777L55.3228 7.47415L71.1606 15.9777H48.4479Z" fill="white"/>
<path d="M4.55775 20.7588H1.77009V22.2167H4.52705C9.25159 22.2167 11.1037 25.023 11.1037 28.3397C11.1037 31.6563 9.25159 34.4627 4.54167 34.4627H1.77009V35.9206H4.58698C9.69306 35.9206 12.7014 32.8474 12.7014 28.3397C12.6868 23.8465 9.69306 20.7588 4.55775 20.7588ZM0.162109 22.2167V34.4627H1.62391V22.2167H0.162109Z" fill="white"/>
<path d="M21.9866 36.1759C17.4696 36.1759 14.1221 32.75 14.1221 28.3472C14.1221 23.9445 17.4696 20.5039 21.9866 20.5039C26.5035 20.5039 29.8511 23.9299 29.8511 28.3472C29.8511 32.7645 26.5181 36.1759 21.9866 36.1759ZM21.9866 34.7326C25.6557 34.7326 28.2869 32.021 28.2869 28.3618C28.2869 24.7026 25.6703 21.9618 21.9866 21.9618C18.3028 21.9618 15.6862 24.6734 15.6862 28.3618C15.6862 32.0502 18.3174 34.7326 21.9866 34.7326Z" fill="white"/>
<path d="M32.1758 20.7588V35.9206H33.6376V20.7588H32.1758ZM36.8448 27.6151L42.5005 20.7588H40.6206L35.5379 26.8818V28.449L40.9291 35.9206H42.8089L36.8448 27.6151Z" fill="white"/>
<path d="M44.1621 22.2167V34.4627H45.6239V22.2167H44.1621ZM48.4116 20.7588H45.6239V22.2167H48.3809C53.1054 22.2167 54.9575 25.023 54.9575 28.3397C54.9575 31.6563 53.1054 34.4627 48.3955 34.4627H45.6254V35.9206H48.4423C53.5483 35.9206 56.5567 32.8474 56.5567 28.3397C56.5421 23.8465 53.5483 20.7588 48.413 20.7588H48.4116Z" fill="white"/>
<path d="M65.9729 36.1759C61.4559 36.1759 58.1084 32.75 58.1084 28.3472C58.1084 23.9445 61.4559 20.5039 65.9729 20.5039C70.4899 20.5039 73.8374 23.9299 73.8374 28.3472C73.8374 32.7645 70.5045 36.1759 65.9729 36.1759ZM65.9729 34.7326C69.642 34.7326 72.2733 32.021 72.2733 28.3618C72.2733 24.7026 69.6566 21.9618 65.9729 21.9618C62.2892 21.9618 59.6725 24.6734 59.6725 28.3618C59.6725 32.0502 62.2892 34.7326 65.9729 34.7326Z" fill="white"/>
</svg>
