<svg width="173" height="190" viewBox="0 0 173 190" fill="none" xmlns="http://www.w3.org/2000/svg">
<path d="M26.7901 117.071C23.7686 114.239 21.394 111.454 19.0746 108.637C16.2267 105.182 13.6627 101.529 11.1698 97.8057C9.72607 95.6441 9.82863 93.7744 11.2881 91.6522C24.1078 72.9788 40.4855 58.2657 60.3107 47.3394C68.3891 42.89 76.8146 39.2689 85.3585 35.7977C96.1349 31.4193 107.337 29.3287 118.8 28.1453C123.368 27.672 125.238 28.6502 127.281 32.8156C130.334 39.0164 132.788 45.4539 134.681 52.1044C134.823 52.6093 135.028 53.0905 134.854 53.6348C134.089 53.6348 133.679 53.0432 133.166 52.6645C126.255 47.6076 119.053 43.032 111.487 39.0007C110.422 38.4326 109.491 38.2433 108.331 38.6456C105.925 39.474 103.48 40.184 100.679 41.0518C104.695 43.1976 108.339 45.0989 111.937 47.079C128.251 56.0647 142.396 67.701 154.364 81.9724C160.66 89.4749 161.204 97.9398 155.768 106.097C154.703 107.699 154.837 109.411 155.232 111.028C155.76 113.197 158.332 113.481 159.886 111.627C162.04 109.056 163.989 106.318 165.858 103.533C166.213 102.997 166.608 102.492 167.097 101.805C171.799 112.195 174.087 122.727 171.562 133.803C169.29 143.807 162.892 150.741 153.946 155.404C147.335 158.843 140.235 160.579 132.614 160.966C134.744 156.24 136.764 151.609 138.452 146.852C144.897 128.612 147.808 109.837 146.901 90.4925C146.846 89.3723 146.885 88.252 146.814 87.1397C146.696 85.3173 145.52 84.1497 143.832 84.1024C142.136 84.0551 140.598 85.3252 140.471 87.0529C140.361 88.5597 140.416 90.0744 140.432 91.5891C140.574 101.403 139.903 111.162 138.468 120.873C138.121 123.201 137.197 125.039 135.336 126.561C127.36 133.062 118.895 138.829 109.854 143.744C108.647 144.398 107.606 145.148 107.345 146.584C107.117 147.862 107.606 148.919 108.584 149.724C109.673 150.615 110.864 150.623 112.087 150.008C116.56 147.759 120.796 145.109 124.954 142.332C126.863 141.054 128.733 139.705 130.618 138.387C131.36 137.866 132.117 137.496 132.969 138.111C133.789 138.71 133.782 139.484 133.498 140.399C131.73 146.189 129.553 151.83 126.8 157.218C125.269 160.208 122.682 161.494 119.305 161.21C95.4801 159.19 73.73 151.215 53.6524 138.419C47.988 134.805 42.5524 130.885 37.3062 126.695C35.4996 125.252 34.5766 123.453 34.2058 121.197C32.5333 111.044 31.9574 100.819 32.1231 90.5399C32.1389 89.6957 32.1073 88.8201 31.9101 87.9996C31.5078 86.3192 29.9852 85.2542 28.431 85.4356C26.7428 85.625 25.52 86.8162 25.4963 88.5992C25.4016 95.8334 25.4016 103.068 26.1038 110.286C26.3089 112.408 26.5219 114.53 26.7822 117.102V117.071H26.7901ZM66.0461 94.7605C66.0303 105.979 74.9686 114.98 86.1474 114.996C97.484 115.02 106.485 106.089 106.509 94.8158C106.533 83.6448 97.5471 74.5961 86.392 74.5645C75.0712 74.5251 66.054 83.4792 66.0382 94.7605H66.0461ZM113.309 94.9104C113.309 96.4882 113.262 98.066 113.325 99.636C113.396 101.458 114.248 101.995 115.921 101.198C119.179 99.6517 122.421 98.066 125.632 96.4172C127.107 95.6599 127.123 94.374 125.664 93.6008C122.413 91.8889 119.124 90.248 115.818 88.6544C114.296 87.9207 113.412 88.4887 113.333 90.1849C113.262 91.7548 113.317 93.3326 113.317 94.9104H113.309ZM59.2299 65.8945C57.6127 65.7603 56.9737 66.5729 57.4549 68.0166C58.6225 71.5036 59.8216 74.9748 61.0839 78.4302C61.6676 80.0317 62.6538 80.2289 63.9081 79.0219C65.7147 77.2942 67.4503 75.4954 69.2175 73.7283C72.2469 70.691 72.1838 70.3991 68.113 68.987C65.0757 67.9298 62.0305 66.8727 59.222 65.9024H59.2299V65.8945ZM86.0843 67.8431C87.5911 67.8431 89.1058 67.8746 90.6126 67.8431C92.6795 67.7957 93.2397 66.9595 92.364 65.1055C90.8808 61.9657 89.3188 58.8653 87.7883 55.7491C87.4649 55.0865 87.1178 54.4395 86.2263 54.479C85.461 54.5184 85.0903 55.0391 84.7905 55.6466C83.2048 58.8811 81.5875 62.0998 80.0413 65.358C79.3234 66.8648 79.8835 67.7563 81.5639 67.8273C83.0707 67.8983 84.5854 67.8431 86.0922 67.8431H86.0843ZM113.207 123.879C114.919 123.997 115.613 123.201 115.148 121.765C114.012 118.278 112.805 114.807 111.542 111.359C110.998 109.868 109.996 109.663 108.836 110.767C107.219 112.306 105.673 113.915 104.087 115.493C101.5 118.081 101.91 119.974 105.318 121.165C108.04 122.112 110.777 123.035 113.207 123.871V123.879ZM86.3052 121.946C84.6643 121.946 83.0154 121.883 81.3824 121.962C79.9545 122.033 79.3076 122.782 79.986 124.195C81.5954 127.563 83.2127 130.94 84.9088 134.269C85.6346 135.689 86.8811 135.736 87.5911 134.364C89.3188 131.05 90.9755 127.697 92.5454 124.305C93.2318 122.822 92.5691 121.986 90.8335 121.946C89.3267 121.907 87.812 121.946 86.2973 121.946H86.3052ZM57.3997 122.017C57.4707 123.374 58.015 124.163 59.3877 123.713C63.0009 122.53 66.5983 121.299 70.172 120.006C71.4422 119.548 71.7183 118.554 70.7401 117.544C68.4128 115.138 66.0382 112.779 63.6399 110.444C62.8194 109.647 61.7781 109.71 61.3757 110.783C59.9636 114.515 58.7014 118.309 57.3997 122.025V122.017ZM113.696 65.8787C113.467 65.9102 113.333 65.9102 113.207 65.9497C109.491 67.2593 105.744 68.5136 102.068 69.9258C100.931 70.3597 101.073 71.4089 101.839 72.1899C104.134 74.5409 106.454 76.876 108.821 79.1718C109.807 80.1263 110.816 79.9685 111.298 78.6589C112.607 75.0852 113.854 71.4799 115.045 67.8667C115.432 66.6912 114.879 65.9734 113.696 65.8787ZM59.1984 95.0524C59.1984 93.4115 59.2457 91.7706 59.1826 90.1375C59.1195 88.4177 58.299 87.8971 56.7291 88.6386C53.4709 90.177 50.2285 91.7548 47.0177 93.3957C45.4162 94.2162 45.4083 95.4705 46.994 96.2831C50.2679 97.9477 53.5735 99.5413 56.8948 101.095C58.3227 101.766 59.1116 101.222 59.1747 99.5729C59.2378 98.066 59.1905 96.5592 59.1905 95.0445L59.1984 95.0524Z" fill="#ED5C15"/>
<path d="M39.792 160.934C25.3235 160.508 7.16288 153.36 1.62475 136.47C0.133722 131.926 0.0706095 127.31 0.23628 122.64C0.457173 116.431 2.86334 107.138 5.5614 102.207C6.05052 102.192 6.23197 102.578 6.44497 102.894C22.4992 125.954 43.8549 142.552 69.1709 154.307C69.6442 154.528 70.1334 154.733 70.5988 154.977C71.3719 155.372 71.798 156.003 71.7112 156.887C71.6086 157.896 70.8907 158.378 70.0071 158.551C67.0408 159.135 64.0825 159.75 61.0925 160.2C58.426 160.594 55.7358 160.839 53.0535 161.044C49.4246 161.32 46.8527 159.719 45.3065 156.445C44.4939 154.725 43.7129 152.981 42.9082 151.262C41.93 149.163 40.1076 148.319 38.301 149.108C36.455 149.913 35.7923 151.759 36.6916 153.904C37.6699 156.248 38.7349 158.559 39.7841 160.942L39.792 160.934Z" fill="#ED5C15"/>
<path d="M120.283 21.7312C116.063 22.2361 111.874 22.5123 107.732 23.1986C101.563 24.2163 95.4803 25.5654 89.5477 27.5218C87.3309 28.2555 85.2245 28.2713 82.9998 27.5376C76.7517 25.4786 70.33 24.098 63.853 22.9935C61.3364 22.5675 59.5141 23.6483 59.1985 25.731C58.9066 27.6717 60.3187 29.1785 62.7643 29.5966C65.0916 29.999 67.4189 30.4487 69.7304 30.9062C70.614 31.0798 71.3398 31.5216 71.466 32.5393C71.5843 33.4938 71.2293 34.2275 70.3457 34.6299C58.7488 39.8761 47.9092 46.4161 37.5351 54.1474C37.4405 52.8852 37.898 51.9542 38.182 51.0233C42.5447 36.7205 48.8954 23.4984 59.3247 12.5326C65.0285 6.52905 71.7579 2.15851 80.0256 0.722701C87.2204 -0.523771 94.3048 0.00479629 100.924 3.48387C108.852 7.6493 114.911 13.858 120.063 21.0449C120.165 21.1948 120.189 21.3999 120.291 21.7234H120.283V21.7312Z" fill="#ED5C15"/>
<path d="M120.544 167.947C113.073 177.998 104.79 186.36 92.2538 188.751C85.0432 190.123 77.9746 189.311 71.3951 185.8C63.9636 181.832 57.8259 176.381 52.9663 169.494C52.2799 168.523 51.7987 167.876 53.6368 167.758C63.6402 167.119 73.4147 165.194 82.9605 162.141C85.1931 161.431 87.26 161.415 89.5005 162.141C99.2356 165.241 109.223 167.119 119.424 167.782C119.668 167.797 119.905 167.853 120.552 167.947H120.544Z" fill="#ED5C15"/>
<path d="M5.41122 87.8575C2.91038 82.493 1.05645 77.2862 0.456886 71.8112C-0.308353 64.8767 -0.371465 57.9422 2.38182 51.2365C6.01078 42.4008 12.8033 36.9494 21.142 33.0365C26.617 30.4725 32.3839 29.0525 38.3954 28.5476C39.5393 28.4529 40.0205 28.5712 39.3815 29.8729C34.6086 39.6554 31.1374 49.8796 29.0311 60.5614C28.9127 61.1688 28.6366 61.6501 28.1633 62.0603C19.5169 69.547 12.0222 78.0514 5.40333 87.8654L5.41122 87.8575Z" fill="#ED5C15"/>
<path d="M166.711 87.5574C160.432 78.1299 153.126 69.7202 144.709 62.2887C143.88 61.555 143.478 60.6162 143.257 59.5591C141.182 49.4848 137.877 39.8285 133.435 30.5589C132.536 28.6892 132.599 28.5867 134.666 28.776C143.249 29.5491 151.264 31.9947 158.388 36.9885C169.141 44.5226 173.401 54.9992 172.297 67.8584C171.784 73.8462 170.451 79.6447 168.06 85.1828C167.776 85.8455 167.484 86.5081 167.177 87.1629C167.129 87.2734 166.987 87.3365 166.711 87.5732V87.5574Z" fill="#ED5C15"/>
</svg>
