<svg width="32" height="32" viewBox="0 0 32 32" fill="none" xmlns="http://www.w3.org/2000/svg">
<g clip-path="url(#clip0_325_28)">
<mask id="mask0_325_28" style="mask-type:luminance" maskUnits="userSpaceOnUse" x="-1" y="0" width="32" height="32">
<path d="M30.8679 0.321289H-0.781128V31.3516H30.8679V0.321289Z" fill="white"/>
</mask>
<g mask="url(#mask0_325_28)">
<path fill-rule="evenodd" clip-rule="evenodd" d="M4.18826 0.321289H24.3671C26.0687 0.321289 27.4541 1.74868 27.4541 3.51741V31.3516L24.2165 28.4037L22.3944 26.666L20.4668 24.8197L21.265 27.69H4.18826C2.48661 27.69 1.1012 26.2626 1.1012 24.4939V3.51741C1.1012 1.74868 2.48661 0.321289 4.18826 0.321289ZM17.5605 19.3273C18.0123 19.9169 18.5544 20.5841 18.5544 20.5841C21.8824 20.4755 23.1624 18.2258 23.1624 18.2258C23.1624 13.2299 20.9939 9.18044 20.9939 9.18044C18.8254 7.50481 16.7624 7.55135 16.7624 7.55135L16.5515 7.79959C19.1115 8.60638 20.3012 9.77002 20.3012 9.77002C18.7351 8.88565 17.1991 8.45123 15.7685 8.28056C14.6843 8.15644 13.6452 8.18747 12.7266 8.31159C12.6477 8.31159 12.5803 8.32341 12.5044 8.33675C12.4933 8.33869 12.4821 8.34065 12.4706 8.34262C11.9435 8.38917 10.6635 8.59087 9.05226 9.32008C8.49508 9.58384 8.16378 9.77002 8.16378 9.77002C8.16378 9.77002 9.41367 8.54432 12.1243 7.73753L11.9737 7.55135C11.9737 7.55135 9.91061 7.50481 7.74214 9.18044C7.74214 9.18044 5.57367 13.2299 5.57367 18.2258C5.57367 18.2258 6.83861 20.4755 10.1666 20.5841C10.1666 20.5841 10.7238 19.8859 11.1755 19.2963C9.26308 18.7067 8.54026 17.4655 8.54026 17.4655C8.54026 17.4655 8.69084 17.5741 8.9619 17.7293C8.97696 17.7448 8.99202 17.7603 9.02214 17.7758C9.04473 17.7913 9.06731 17.803 9.0899 17.8146C9.11249 17.8262 9.13508 17.8379 9.15767 17.8534C9.53414 18.0706 9.91061 18.2413 10.257 18.3809C10.8744 18.6291 11.6123 18.8774 12.4706 19.0481C13.6 19.2653 14.9252 19.3428 16.3708 19.0636C17.0786 18.9395 17.8014 18.7222 18.5544 18.3964C19.0814 18.1947 19.6687 17.8999 20.2861 17.481C20.2861 17.481 19.5332 18.7533 17.5605 19.3273ZM10.0148 15.0624C10.0148 14.116 10.6924 13.3402 11.5508 13.3402C12.4091 13.3402 13.1019 14.116 13.0868 15.0624C13.0868 16.0088 12.4091 16.7846 11.5508 16.7846C10.7075 16.7846 10.0148 16.0088 10.0148 15.0624ZM15.5113 15.0624C15.5113 14.116 16.1889 13.3402 17.0473 13.3402C17.9056 13.3402 18.5833 14.116 18.5833 15.0624C18.5833 16.0088 17.9056 16.7846 17.0473 16.7846C16.204 16.7846 15.5113 16.0088 15.5113 15.0624Z" fill="white"/>
</g>
</g>
<defs>
<clipPath id="clip0_325_28">
<rect width="32" height="32" fill="white"/>
</clipPath>
</defs>
</svg>
