<svg width="32" height="33" viewBox="0 0 32 33" fill="none" xmlns="http://www.w3.org/2000/svg">
<g clip-path="url(#clip0_325_2054)">
<path d="M16 0.895996C7.16 0.895996 0 8.06 0 16.896C0 23.9667 4.584 29.9627 10.94 32.076C11.74 32.2267 12.0333 31.732 12.0333 31.3067C12.0333 30.9267 12.02 29.92 12.0133 28.5867C7.56267 29.552 6.624 26.44 6.624 26.44C5.896 24.5933 4.844 24.1 4.844 24.1C3.39467 23.108 4.956 23.128 4.956 23.128C6.56267 23.24 7.40667 24.776 7.40667 24.776C8.83333 27.2227 11.152 26.516 12.0667 26.1067C12.2107 25.072 12.6227 24.3667 13.08 23.9667C9.52667 23.5667 5.792 22.1907 5.792 16.06C5.792 14.3133 6.412 12.8867 7.43867 11.7667C7.25867 11.3627 6.71867 9.736 7.57867 7.532C7.57867 7.532 8.91867 7.10266 11.9787 9.172C13.2587 8.816 14.6187 8.64 15.9787 8.632C17.3387 8.64 18.6987 8.816 19.9787 9.172C23.0187 7.10266 24.3587 7.532 24.3587 7.532C25.2187 9.736 24.6787 11.3627 24.5187 11.7667C25.5387 12.8867 26.1587 14.3133 26.1587 16.06C26.1587 22.2067 22.4187 23.56 18.8587 23.9533C19.4187 24.4333 19.9387 25.4147 19.9387 26.9133C19.9387 29.0547 19.9187 30.7747 19.9187 31.2947C19.9187 31.7147 20.1987 32.2147 21.0187 32.0547C27.42 29.956 32 23.956 32 16.896C32 8.06 24.836 0.895996 16 0.895996Z" fill="white"/>
</g>
<defs>
<clipPath id="clip0_325_2054">
<rect width="32" height="32" fill="white" transform="translate(0 0.5)"/>
</clipPath>
</defs>
</svg>
