<svg width="32" height="32" viewBox="0 0 32 32" fill="none" xmlns="http://www.w3.org/2000/svg">
<path d="M32 5.90488C30.8227 6.41118 29.5573 6.75322 28.2294 6.9071C29.5848 6.11941 30.6259 4.87211 31.116 3.38577C29.8474 4.11529 28.4424 4.64485 26.9469 4.93027C25.7494 3.69321 24.0432 2.92041 22.1549 2.92041C18.5293 2.92041 15.5896 5.77008 15.5896 9.28506C15.5896 9.78391 15.6477 10.2697 15.7597 10.7356C10.3033 10.4702 5.46588 7.93615 2.22779 4.08535C1.66267 5.02536 1.33883 6.11864 1.33883 7.28512C1.33883 9.49339 2.49787 11.4415 4.25947 12.5828C3.18331 12.5499 2.17099 12.2635 1.28587 11.7868C1.28512 11.8133 1.28512 11.8401 1.28512 11.8668C1.28512 14.9505 3.54817 17.523 6.55153 18.108C6.00065 18.2535 5.42065 18.3312 4.82193 18.3312C4.39889 18.3312 3.98769 18.2913 3.58673 18.2171C4.42225 20.7457 6.84673 22.5858 9.7197 22.637C7.47281 24.3442 4.64209 25.3618 1.56608 25.3618C1.03616 25.3618 0.513602 25.3315 0 25.2728C2.90545 27.0788 6.35633 28.1325 10.0639 28.1325C22.1396 28.1325 28.7432 18.4341 28.7432 10.0229C28.7432 9.74696 28.7368 9.4726 28.7242 9.19943C30.0068 8.30223 31.1198 7.18135 32 5.90488Z" fill="white"/>
</svg>
