<svg width="151" height="30" viewBox="0 0 151 30" fill="none" xmlns="http://www.w3.org/2000/svg">
<g clip-path="url(#clip0_868_5312)">
<path d="M9.93467 12.6056L15.7612 6.78146L21.5902 12.6104L24.9785 9.21965L15.7612 0L6.54395 9.21728L9.93467 12.6056Z" fill="white"/>
<path d="M0.758789 15.0005L4.14828 11.611L7.53777 15.0005L4.14828 18.39L0.758789 15.0005Z" fill="white"/>
<path d="M9.93465 17.3943L15.7612 23.2209L21.5901 17.392L24.9809 20.778L24.9785 20.7803L15.7612 30L6.54392 20.7851L6.53918 20.7803L9.93465 17.3943Z" fill="white"/>
<path d="M23.9789 15.0013L27.3684 11.6119L30.7579 15.0013L27.3684 18.3908L23.9789 15.0013Z" fill="white"/>
<path d="M19.1993 14.9988L15.7612 11.5583L13.2188 14.1008L12.9249 14.3922L12.3231 14.9941L12.3184 14.9988L12.3231 15.0059L15.7612 18.4417L19.1993 15.0012L19.2017 14.9988H19.1993Z" fill="white"/>
<path d="M36.0463 7.26959H43.4202C45.2494 7.26959 46.6332 7.74349 47.5715 8.69128C47.925 9.04139 48.2037 9.45967 48.3906 9.92075C48.5776 10.3818 48.6689 10.8761 48.6591 11.3735V11.4186C48.6654 11.8261 48.6087 12.2321 48.4908 12.6223C48.3859 12.9581 48.2335 13.2773 48.0383 13.57C47.8563 13.8461 47.6361 14.095 47.3843 14.3093C47.1383 14.5211 46.8687 14.7039 46.581 14.8543C47.4107 15.1433 48.1568 15.6315 48.7539 16.276C49.2815 16.8763 49.5453 17.7056 49.5453 18.7639V18.809C49.5603 19.4699 49.4164 20.1249 49.1259 20.7188C48.8443 21.266 48.4316 21.7349 47.9245 22.0836C47.3513 22.4679 46.713 22.7449 46.0408 22.9011C45.2421 23.0905 44.4234 23.182 43.6026 23.1736H36.0463V7.26959ZM42.6809 13.7004C43.3188 13.7312 43.9537 13.5939 44.522 13.3023C44.7436 13.1729 44.9245 12.9839 45.0443 12.757C45.164 12.53 45.2179 12.274 45.1996 12.018V11.973C45.2114 11.7371 45.1635 11.5021 45.0603 11.2897C44.9572 11.0772 44.8022 10.8942 44.6096 10.7575C44.2163 10.4779 43.6484 10.3381 42.906 10.3381H39.456V13.7004H42.6809ZM43.6121 20.1098C44.2477 20.1454 44.8803 20 45.4366 19.6904C45.6533 19.5512 45.8287 19.3564 45.9445 19.1264C46.0604 18.8963 46.1124 18.6395 46.0953 18.3825V18.3374C46.1038 18.0932 46.0524 17.8505 45.9454 17.6308C45.8384 17.411 45.6791 17.2208 45.4816 17.0769C45.0741 16.7609 44.4153 16.603 43.5055 16.603H39.456V20.1098H43.6121Z" fill="white"/>
<path d="M53.9383 7.26959H57.438V23.1783H53.9383V7.26959Z" fill="white"/>
<path d="M62.7338 7.26959H65.961L73.4201 17.0603V7.26959H76.8748V23.1783H73.8964L66.1932 13.0653V23.1783H62.7338V7.26959Z" fill="white"/>
<path d="M87.4712 7.15588H90.6937L97.5107 23.1783H93.8569L92.4021 19.6099H85.6751L84.2202 23.1783H80.6518L87.4712 7.15588ZM91.1533 16.5201L89.035 11.3593L86.9262 16.5201H91.1533Z" fill="white"/>
<path d="M101.295 7.26959H104.522L111.976 17.0603V7.26959H115.431V23.1783H112.453L104.749 13.0653V23.1783H101.295V7.26959Z" fill="white"/>
<path d="M128.027 23.4579C126.912 23.4674 125.806 23.2514 124.776 22.8229C123.807 22.4226 122.927 21.8323 122.189 21.0867C121.452 20.3412 120.871 19.4556 120.48 18.482C120.069 17.4636 119.86 16.3745 119.867 15.2761V15.2311C119.848 13.0659 120.681 10.9802 122.186 9.42345C122.927 8.66303 123.813 8.06016 124.793 7.65108C125.858 7.20979 127.002 6.98971 128.155 7.00421C128.837 6.99912 129.518 7.06023 130.188 7.18666C130.762 7.2951 131.322 7.46265 131.861 7.68662C132.35 7.89245 132.815 8.15149 133.247 8.45907C133.669 8.75906 134.065 9.09351 134.432 9.45899L132.207 12.0275C131.638 11.503 131.001 11.0589 130.311 10.7077C129.634 10.384 128.891 10.2217 128.141 10.2338C127.516 10.2272 126.898 10.3534 126.326 10.6043C125.754 10.8551 125.242 11.2248 124.824 11.6887C124.409 12.1514 124.084 12.6874 123.866 13.2691C123.638 13.8839 123.523 14.535 123.528 15.1908V15.2358C123.525 15.8906 123.64 16.5406 123.866 17.1551C124.082 17.7389 124.403 18.2779 124.814 18.745C125.229 19.2147 125.74 19.5897 126.312 19.8448C126.884 20.0999 127.505 20.2291 128.131 20.2235C128.929 20.2487 129.721 20.077 130.437 19.7236C131.118 19.3522 131.749 18.8934 132.311 18.3588L134.539 20.6098C134.145 21.0366 133.72 21.4327 133.266 21.7945C132.82 22.147 132.336 22.4482 131.823 22.6925C131.276 22.9499 130.7 23.1401 130.108 23.2589C129.423 23.3962 128.726 23.4628 128.027 23.4579Z" fill="white"/>
<path d="M138.669 7.26959H150.642V10.3831H142.111V13.6103H149.623V16.7238H142.123V20.0648H150.76V23.1783H138.676L138.669 7.26959Z" fill="white"/>
</g>
<defs>
<clipPath id="clip0_868_5312">
<rect width="149.998" height="30" fill="white" transform="translate(0.76001)"/>
</clipPath>
</defs>
</svg>
