<svg width="113" height="30" viewBox="0 0 113 30" fill="none" xmlns="http://www.w3.org/2000/svg">
<g clip-path="url(#clip0_538_13402)">
<path fill-rule="evenodd" clip-rule="evenodd" d="M112.058 8.7354C112.206 8.7354 112.304 8.78473 112.403 8.83405C112.502 8.93271 112.502 9.03136 112.502 9.17935V11.9417C112.502 12.0897 112.452 12.1883 112.403 12.287C112.304 12.3856 112.206 12.3856 112.058 12.3856H109.641V23.4349C109.641 23.5829 109.591 23.6816 109.542 23.7802C109.443 23.8789 109.345 23.8789 109.197 23.8789H105.596C105.448 23.8789 105.349 23.8296 105.25 23.7802C105.152 23.6816 105.152 23.5829 105.152 23.4349V12.3856H102.735C102.587 12.3856 102.488 12.3363 102.389 12.287C102.291 12.1883 102.291 12.0897 102.291 11.9417V9.17935C102.291 9.03136 102.34 8.93271 102.389 8.83405C102.488 8.7354 102.587 8.7354 102.735 8.7354H105.152V4.83854C105.152 4.69056 105.201 4.5919 105.25 4.49325C105.349 4.39459 105.448 4.39459 105.596 4.39459H109.197C109.345 4.39459 109.443 4.44392 109.542 4.49325C109.641 4.5919 109.641 4.69056 109.641 4.83854V8.7354H112.058Z" fill="white"/>
<path fill-rule="evenodd" clip-rule="evenodd" d="M101.65 16.0852C101.65 16.7758 101.6 17.269 101.452 17.565C101.304 17.861 101.008 18.009 100.564 18.009H91.5868C91.7841 18.8475 92.2281 19.4394 92.8693 19.8834C93.5106 20.278 94.3492 20.4753 95.385 20.4753C95.8783 20.4753 96.3716 20.426 96.8155 20.278C97.2595 20.13 97.7527 19.8834 98.246 19.5874C98.3447 19.4888 98.4433 19.4888 98.5913 19.4888C98.69 19.4888 98.7886 19.5381 98.9366 19.6861L100.515 21.2152C100.614 21.3139 100.614 21.4125 100.614 21.5112C100.614 21.6099 100.564 21.7578 100.416 21.8565C99.6765 22.5964 98.8379 23.139 97.9007 23.5829C96.9635 23.9776 95.977 24.1749 94.8918 24.1749C93.3626 24.1749 92.0308 23.8296 90.7976 23.139C89.6137 22.4484 88.6765 21.5112 88.0353 20.3273C87.394 19.1435 87.0487 17.861 87.0487 16.4305C87.0487 15 87.394 13.7175 88.0353 12.5336C88.6765 11.3498 89.6137 10.4125 90.7483 9.77129C91.8828 9.0807 93.1653 8.73541 94.5958 8.73541C95.977 8.73541 97.2101 9.0807 98.2953 9.72196C99.3805 10.4125 100.17 11.3004 100.762 12.435C101.354 13.5695 101.65 14.8027 101.65 16.1838V16.0852ZM94.6451 12.4843C93.8559 12.4843 93.1653 12.7309 92.6227 13.1749C92.0801 13.6188 91.6855 14.2601 91.5375 15.0493H97.6541C97.5061 14.2107 97.1608 13.5695 96.6182 13.1749C96.0756 12.7309 95.4344 12.4843 94.6451 12.4843Z" fill="white"/>
<path fill-rule="evenodd" clip-rule="evenodd" d="M85.0801 8.98202C85.2281 8.98202 85.3267 9.03135 85.4254 9.08068C85.524 9.17933 85.524 9.27799 85.524 9.42597V23.8296C85.524 25.3094 85.1294 26.5426 84.3402 27.4305C83.5509 28.3677 82.5644 29.0089 81.3312 29.4035C80.1473 29.7982 78.9142 29.9955 77.6317 29.9955C76.3491 29.9955 75.1653 29.7982 73.9814 29.4529C72.8469 29.1076 71.8603 28.6143 71.0711 28.0224C70.9725 27.9237 70.8738 27.8251 70.8738 27.6771C70.8738 27.5784 70.8738 27.4798 70.9231 27.3811L72.107 25.26C72.2056 25.1121 72.3536 25.0134 72.4523 25.0134C72.5509 25.0134 72.6496 25.0134 72.6989 25.0627C73.3895 25.4574 74.0801 25.7533 74.82 25.9506C75.5599 26.1479 76.3985 26.2466 77.2864 26.2466C78.3222 26.2466 79.2595 26 80.098 25.556C80.9366 25.1121 81.3805 24.4215 81.3805 23.3856V21.9551C80.1967 23.287 78.7662 23.9775 77.0397 23.9775C75.7079 23.9775 74.4747 23.6322 73.3895 22.9417C72.3043 22.2511 71.4657 21.3139 70.8245 20.13C70.2325 18.9461 69.9366 17.6636 69.9366 16.2825C69.9366 14.9013 70.2325 13.6188 70.8245 12.4349C71.4657 11.2511 72.3043 10.3139 73.3895 9.62328C74.4747 8.93269 75.7079 8.5874 77.0397 8.5874C78.6675 8.5874 80.098 9.22866 81.2819 10.5605L81.3805 9.37664C81.4299 9.08068 81.5778 8.93269 81.8245 8.93269H85.1294L85.0801 8.98202ZM77.5823 19.8834C78.5195 19.8834 79.3088 19.5381 79.95 18.7982C80.5913 18.1076 80.9366 17.269 80.9366 16.3318C80.9366 15.3946 80.5913 14.556 79.95 13.8654C79.3088 13.1748 78.5195 12.7802 77.5823 12.7802C76.6451 12.7802 75.8559 13.1255 75.2146 13.8161C74.5734 14.5067 74.2281 15.2959 74.2281 16.2825C74.2281 17.269 74.524 18.1076 75.1653 18.7982C75.8065 19.4887 76.5958 19.7847 77.5823 19.7847V19.8834Z" fill="white"/>
<path fill-rule="evenodd" clip-rule="evenodd" d="M68.4074 8.7354C68.5554 8.7354 68.6541 8.78473 68.7527 8.83405C68.8514 8.93271 68.8514 9.03136 68.8514 9.17935V11.9417C68.8514 12.0897 68.8021 12.1883 68.7527 12.287C68.6541 12.3856 68.5554 12.3856 68.4074 12.3856H65.9904V23.4349C65.9904 23.5829 65.9411 23.6816 65.8917 23.7802C65.7931 23.8789 65.6944 23.8789 65.5465 23.8789H61.9456C61.7976 23.8789 61.6989 23.8296 61.6003 23.7802C61.5016 23.6816 61.5016 23.5829 61.5016 23.4349V12.3856H59.0846C58.9366 12.3856 58.8379 12.3363 58.7393 12.287C58.6406 12.1883 58.6406 12.0897 58.6406 11.9417V9.17935C58.6406 9.03136 58.69 8.93271 58.7393 8.83405C58.8379 8.7354 58.9366 8.7354 59.0846 8.7354H61.5016V4.83854C61.5016 4.69056 61.5509 4.5919 61.6003 4.49325C61.6989 4.39459 61.7976 4.39459 61.9456 4.39459H65.5465C65.6944 4.39459 65.7931 4.44392 65.8917 4.49325C65.9904 4.5919 65.9904 4.69056 65.9904 4.83854V8.7354H68.4074Z" fill="white"/>
<path fill-rule="evenodd" clip-rule="evenodd" d="M54.6496 7.50224C53.959 7.50224 53.3671 7.25561 52.9231 6.81166C52.4792 6.31839 52.2325 5.72646 52.2325 5.0852C52.2325 4.39462 52.4792 3.80269 52.9231 3.35875C53.3671 2.86547 53.959 2.61884 54.6496 2.61884C55.3402 2.61884 55.9321 2.86547 56.376 3.35875C56.82 3.85202 57.0666 4.39462 57.0666 5.0852C57.0666 5.77579 56.82 6.31839 56.376 6.81166C55.9321 7.30493 55.3402 7.50224 54.6496 7.50224ZM52.3805 9.17937C52.3805 9.03139 52.4299 8.93274 52.4792 8.83408C52.5778 8.73543 52.6765 8.73543 52.8245 8.73543H56.4254C56.5734 8.73543 56.672 8.78475 56.7707 8.83408C56.8693 8.93274 56.8693 9.03139 56.8693 9.17937V23.4843C56.8693 23.6323 56.82 23.7309 56.7707 23.8296C56.672 23.9283 56.5734 23.9283 56.4254 23.9283H52.8245C52.6765 23.9283 52.5778 23.8789 52.4792 23.8296C52.3805 23.7309 52.3805 23.6323 52.3805 23.4843V9.17937Z" fill="white"/>
<path fill-rule="evenodd" clip-rule="evenodd" d="M46.5599 12.5336C47.6944 12.8296 48.6316 13.4708 49.4702 14.408C50.3088 15.3453 50.7034 16.4798 50.7034 17.8116C50.7034 19.8834 50.0621 21.4125 48.7303 22.4484C47.4478 23.4843 45.4747 23.9775 42.811 23.9775H35.3626C35.2146 23.9775 35.1159 23.9282 35.0173 23.8789C34.9186 23.7802 34.9186 23.6816 34.9186 23.5336V3.01341C34.9186 2.86543 34.968 2.76678 35.0173 2.66812C35.1159 2.56947 35.2146 2.52014 35.3626 2.52014H42.7617C44.0935 2.52014 45.2281 2.76678 46.1653 3.26005C47.1518 3.75333 47.8424 4.39458 48.3357 5.23315C48.829 6.07171 49.0756 7.00893 49.0756 8.0448C49.0756 9.13001 48.829 10.0179 48.3357 10.8071C47.8424 11.5964 47.2505 12.139 46.5106 12.4843L46.5599 12.5336ZM44.7348 8.68606C44.7348 7.40355 43.9455 6.71297 42.3671 6.71297H39.6047V10.8071H42.3671C43.107 10.8071 43.6989 10.6098 44.1429 10.2645C44.5868 9.91924 44.7841 9.37664 44.7841 8.63673L44.7348 8.68606ZM42.959 19.7847C43.8962 19.7847 44.6361 19.5874 45.1787 19.1435C45.7213 18.6995 46.0173 18.0583 46.0173 17.2197C46.0173 16.3811 45.7213 15.7892 45.1787 15.3946C44.6361 15 43.8962 14.8027 42.959 14.8027H39.5554V19.834H42.959V19.7847Z" fill="white"/>
<path fill-rule="evenodd" clip-rule="evenodd" d="M9.07559 0.645711C9.47021 0.251092 10.0128 0.00445557 10.5554 0.00445557H14.2056C14.6496 0.00445557 14.8962 0.547056 14.6003 0.892348L7.39846 8.58741H11.394L15.4388 12.8789H7.39846L15.4388 21.4619H10.6047C10.0621 21.4619 9.51953 21.2152 9.12492 20.8206L0.985902 12.139C0.245992 11.3497 0.245992 10.1659 0.985902 9.37665L9.12492 0.695038L9.07559 0.645711Z" fill="white"/>
<path fill-rule="evenodd" clip-rule="evenodd" d="M20.2684 29.3542C19.8738 29.7488 19.3312 29.9955 18.7886 29.9955H15.1384C14.6945 29.9955 14.4478 29.4529 14.7438 29.1076L21.9456 21.4125H17.9501L13.9052 17.121H21.9456L13.9097 8.53809H18.7438C19.2864 8.53809 19.829 8.78472 20.2236 9.17934L28.3626 17.861C29.1025 18.6502 29.1025 19.8341 28.3626 20.6233L20.2191 29.3049L20.2684 29.3542Z" fill="white"/>
</g>
<defs>
<clipPath id="clip0_538_13402">
<rect width="112.108" height="30" fill="white" transform="translate(0.393982)"/>
</clipPath>
</defs>
</svg>
