<svg width="165" height="30" viewBox="0 0 165 30" fill="none" xmlns="http://www.w3.org/2000/svg">
<g clip-path="url(#clip0_538_13374)">
<path d="M24.8304 17.8863C24.341 18.1853 23.77 18.2397 23.335 17.995C22.7912 17.6687 22.465 16.9346 22.465 15.9286V12.8563C22.465 11.3881 21.894 10.3277 20.9152 10.0558C19.2567 9.56639 18.006 11.6056 17.5438 12.3669L14.6073 17.0706V11.2793C14.5801 9.94704 14.1451 9.15856 13.3294 8.91386C12.7857 8.75073 11.97 8.8323 11.1815 10.0286L4.62895 20.5236C3.7589 18.8651 3.29668 17.0162 3.29668 15.1402C3.29668 8.8051 8.38104 3.66637 14.6073 3.66637C20.8336 3.66637 25.918 8.8051 25.918 15.1402V15.1673V15.1945C25.9724 16.418 25.5917 17.3969 24.8304 17.8863ZM28.4194 15.1402V15.113V15.0858C28.3922 7.39127 22.1931 1.1106 14.6073 1.1106C6.9944 1.1106 0.795288 7.39127 0.795288 15.1402C0.795288 22.8619 6.9944 29.1697 14.6073 29.1697C18.1147 29.1697 21.4318 27.8375 23.9876 25.4176C24.5042 24.9282 24.5313 24.1397 24.0419 23.6231C23.5797 23.1066 22.7912 23.0794 22.2747 23.5416C22.2747 23.5416 22.2746 23.5416 22.2475 23.5688C20.1811 25.5264 17.4078 26.6411 14.553 26.6411C11.2087 26.6411 8.2179 25.1729 6.15153 22.8347L12.0516 13.3729V17.7503C12.0516 19.8439 12.8672 20.5236 13.547 20.7139C14.2267 20.9042 15.2599 20.7683 16.3746 19.001L19.6101 13.7535C19.7189 13.5904 19.8004 13.4272 19.9092 13.3185V15.983C19.9092 17.9406 20.6977 19.5176 22.0571 20.2789C23.2806 20.9858 24.8304 20.9042 26.1083 20.1158C27.6853 19.0826 28.5281 17.2881 28.4194 15.1402ZM47.6692 10.3549C47.9955 10.5452 48.2946 11.0074 48.2946 11.4153C48.2946 12.0678 47.7508 12.6116 47.1255 12.6116C46.9623 12.6116 46.8264 12.5572 46.6904 12.53C45.9563 11.9862 45.0319 11.6328 44.0531 11.6328C41.742 11.6328 40.1651 13.5088 40.1651 15.8471C40.1651 18.1853 41.7692 20.0342 44.0531 20.0342C45.195 20.0342 46.2282 19.572 46.9895 18.8379C47.1798 18.7019 47.4245 18.6204 47.6692 18.6204C48.2946 18.6204 48.784 19.1098 48.784 19.7351C48.784 20.1429 48.5393 20.4964 48.2402 20.6867C47.1255 21.6383 45.6301 22.2637 44.0803 22.2637C40.5457 22.2637 37.6637 19.3545 37.6637 15.7655C37.6637 12.1765 40.5457 9.26732 44.0803 9.26732C45.3854 9.24013 46.6361 9.64796 47.6692 10.3549ZM54.1402 13.0738C56.5601 13.0738 58.5721 15.113 58.5721 17.6416C58.5721 20.143 56.5329 22.2909 54.1402 22.2909C51.6117 22.2909 49.5181 20.1701 49.5181 17.6416C49.5181 15.113 51.6117 13.0738 54.1402 13.0738ZM54.113 20.0342C55.1734 20.0342 56.0707 19.0282 56.0707 17.6687C56.0707 16.3093 55.1734 15.4392 54.113 15.4392C52.9711 15.4392 52.0195 16.2821 52.0195 17.6687C52.0195 19.001 52.9711 20.0342 54.113 20.0342ZM60.0946 20.8771V14.4604C60.0946 13.7535 60.6384 13.1825 61.3453 13.1825C62.0251 13.1825 62.596 13.7535 62.596 14.4604V20.8771C62.596 21.584 62.0251 22.1549 61.3453 22.1549C60.6656 22.1549 60.0946 21.5568 60.0946 20.8771ZM59.9043 10.7627C59.9043 9.91985 60.5569 9.26732 61.3453 9.26732C62.161 9.26732 62.8136 9.94704 62.8136 10.7627C62.8136 11.5784 62.161 12.2309 61.3453 12.2309C60.5297 12.2037 59.9043 11.5512 59.9043 10.7627ZM67.3813 17.3968V20.8771C67.3813 21.584 66.8103 22.1549 66.1306 22.1549C65.4509 22.1549 64.8799 21.584 64.8799 20.8771V14.1613C64.8799 13.6176 65.3149 13.1825 65.8587 13.1825C66.4025 13.1825 66.8103 13.6448 66.8103 14.1613C67.8163 13.2097 68.7136 13.0738 69.5564 13.0738C72.0578 13.0738 73.1726 14.9498 73.1726 17.0978V20.8771C73.1726 21.584 72.6016 22.1549 71.9219 22.1549C71.2422 22.1549 70.6712 21.584 70.6712 20.8771V17.3968C70.6712 16.3093 70.5352 15.3849 68.9583 15.3849C67.8435 15.3849 67.3813 16.3093 67.3813 17.3968ZM81.2749 18.7291C80.9758 18.7291 80.7855 18.5932 80.6224 18.4028L77.7132 15.2489V20.8771C77.7132 21.584 77.1422 22.1549 76.4625 22.1549C75.7827 22.1549 75.2118 21.584 75.2118 20.8771V9.72953C75.2933 9.53921 75.4837 9.40326 75.674 9.40326C75.8915 9.40326 76.0818 9.59359 76.2178 9.72953L80.8671 14.9498C81.003 15.113 81.1662 15.1945 81.2749 15.1945C81.3565 15.1945 81.5468 15.113 81.6828 14.9498L86.3321 9.72953C86.468 9.59359 86.6312 9.40326 86.8759 9.40326C87.0934 9.40326 87.2837 9.53921 87.3381 9.72953V20.8771C87.3381 21.584 86.7943 22.1549 86.0874 22.1549C85.4077 22.1549 84.8367 21.584 84.8367 20.8771V15.2489L81.9275 18.4028C81.71 18.5932 81.5196 18.7291 81.2749 18.7291ZM93.2925 20.0342C94.4072 20.0342 95.3589 19.0282 95.3589 17.6687C95.3589 16.3093 94.3801 15.412 93.2925 15.412C92.2049 15.412 91.3077 16.3365 91.3077 17.6687C91.3077 18.9738 92.1777 20.0342 93.2925 20.0342ZM95.957 21.1761L95.9026 20.8771C95.4132 21.8287 93.8635 22.2637 92.8847 22.2637C90.5464 22.2637 88.8063 20.1429 88.8063 17.6144C88.8063 15.113 90.5736 13.0466 93.0206 13.0466C93.4284 13.0466 94.8423 13.1554 95.9298 14.4332L95.9842 14.1342C95.9842 13.5904 96.392 13.1554 96.9358 13.1554C97.4796 13.1554 97.9146 13.6176 97.9146 14.1342V21.1489C97.9146 21.6927 97.4796 22.1278 96.9358 22.1278C96.3649 22.1549 95.957 21.6927 95.957 21.1761ZM104.793 15.3849H104.522C102.945 15.4664 102.646 16.3637 102.646 17.3968V20.8771C102.646 21.584 102.075 22.1549 101.395 22.1549C100.715 22.1549 100.144 21.584 100.144 20.8771V14.1613C100.144 13.6176 100.579 13.1825 101.123 13.1825C101.667 13.1825 102.075 13.6448 102.075 14.1613C102.999 13.2913 103.76 13.101 104.522 13.0738H104.766C105.364 13.0738 105.908 13.5904 105.908 14.2429C105.935 14.8411 105.392 15.3849 104.793 15.3849ZM114.446 20.2789C114.554 20.4692 114.636 20.6595 114.636 20.8771C114.636 21.5296 114.038 22.1278 113.385 22.1278C112.95 22.1278 112.57 21.8015 112.27 21.4208L109.388 18.0766V20.8499C109.388 21.5568 108.817 22.1278 108.138 22.1278C107.458 22.1278 106.887 21.5568 106.887 20.8499V10.654C106.887 9.94705 107.431 9.37607 108.138 9.37607C108.845 9.37607 109.388 9.94705 109.388 10.654V17.0162L112.27 13.8351C112.57 13.5088 112.923 13.1554 113.358 13.1554C113.983 13.1554 114.554 13.7263 114.554 14.3789C114.554 14.5692 114.5 14.7867 114.391 14.9498L112.107 17.4512L114.446 20.2789ZM119.34 15.412C118.66 15.412 117.545 15.7655 117.545 16.8259H121.161C121.134 15.7655 119.992 15.412 119.34 15.412ZM122.602 18.43H117.545C117.545 19.9254 118.986 20.1701 119.612 20.1701C120.074 20.1701 120.726 20.0886 121.243 19.8439C121.406 19.7351 121.651 19.6535 121.895 19.6535C122.439 19.6535 122.901 20.1158 122.901 20.6867C122.901 21.0674 122.657 21.3936 122.358 21.584C121.596 22.1549 120.59 22.2909 119.639 22.2909C117.11 22.2909 115.017 20.9314 115.017 17.7503C115.017 15.2489 116.294 13.0738 119.285 13.0738C121.705 13.0738 123.527 14.6508 123.581 17.4512C123.581 17.9678 123.146 18.43 122.602 18.43ZM129.563 22.2637H128.883C126.98 22.2637 125.865 21.4208 125.865 18.4572V15.3849H125.212C124.614 15.3849 124.098 14.8411 124.098 14.2429C124.098 13.5904 124.641 13.0738 125.212 13.0738H125.865V10.7083C125.865 10.0014 126.409 9.43045 127.116 9.43045C127.795 9.43045 128.366 10.0014 128.366 10.7083V13.0738H129.4C129.998 13.0738 130.514 13.5904 130.514 14.2429C130.514 14.8411 129.971 15.3849 129.4 15.3849H128.366V17.9678C128.366 19.6807 128.448 20.0342 129.209 20.0342H129.563C130.161 20.0342 130.677 20.5236 130.677 21.1489C130.677 21.7471 130.161 22.2637 129.563 22.2637ZM141.662 10.3549C141.988 10.5452 142.287 11.0074 142.287 11.4153C142.287 12.0678 141.743 12.6116 141.118 12.6116C140.955 12.6116 140.819 12.5572 140.683 12.53C139.949 11.9862 139.025 11.6328 138.046 11.6328C135.735 11.6328 134.158 13.5088 134.158 15.8471C134.158 18.1853 135.762 20.0342 138.046 20.0342C139.188 20.0342 140.221 19.572 140.982 18.8379C141.172 18.7019 141.417 18.6204 141.662 18.6204C142.287 18.6204 142.777 19.1098 142.777 19.7351C142.777 20.1429 142.532 20.4964 142.233 20.6867C141.118 21.6383 139.623 22.2637 138.073 22.2637C134.538 22.2637 131.656 19.3545 131.656 15.7655C131.656 12.1765 134.538 9.26732 138.073 9.26732C139.378 9.24013 140.656 9.64796 141.662 10.3549ZM147.997 20.0342C149.112 20.0342 150.063 19.0282 150.063 17.6687C150.063 16.3093 149.084 15.412 147.997 15.412C146.882 15.412 146.012 16.3365 146.012 17.6687C146.012 18.9738 146.909 20.0342 147.997 20.0342ZM150.661 21.1761L150.607 20.8771C150.118 21.8287 148.568 22.2637 147.589 22.2637C145.251 22.2637 143.511 20.1429 143.511 17.6144C143.511 15.113 145.278 13.0466 147.725 13.0466C148.133 13.0466 149.547 13.1554 150.634 14.4332L150.689 14.1342C150.689 13.5904 151.096 13.1554 151.64 13.1554C152.184 13.1554 152.619 13.6176 152.619 14.1342V21.1489C152.619 21.6927 152.184 22.1278 151.64 22.1278C151.069 22.1549 150.661 21.6927 150.661 21.1761ZM159.443 20.0342C160.558 20.0342 161.428 18.9738 161.428 17.6687C161.428 16.3093 160.531 15.412 159.443 15.412C158.329 15.412 157.377 16.3093 157.377 17.6687C157.377 19.0282 158.329 20.0342 159.443 20.0342ZM157.377 21.5296V24.7107C157.377 25.4176 156.806 25.9886 156.126 25.9886C155.447 25.9886 154.876 25.4176 154.876 24.7107V14.1613C154.876 13.6176 155.311 13.1825 155.855 13.1825C156.398 13.1825 156.806 13.6448 156.806 14.2701C157.731 13.3185 158.873 13.0738 159.743 13.0738C162.162 13.0738 163.957 15.113 163.957 17.6416C163.957 20.143 162.244 22.2909 159.879 22.2909C159.144 22.2637 158.057 22.0462 157.377 21.5296Z" fill="white"/>
</g>
<defs>
<clipPath id="clip0_538_13374">
<rect width="163.636" height="30" fill="white" transform="translate(0.757629)"/>
</clipPath>
</defs>
</svg>
