<svg width="134" height="32" viewBox="0 0 134 32" fill="none" xmlns="http://www.w3.org/2000/svg">
<g clip-path="url(#clip0_881_6039)">
<path d="M49.0275 14.4575C50.135 14.4575 50.9875 14.8625 51.5625 15.6275C52.115 16.395 52.3925 17.48 52.3925 18.865V20.74C52.3925 21.975 52.115 22.975 51.5825 23.7425C51.03 24.53 50.1575 24.935 48.985 24.935H39.3825C39.1925 24.935 38.765 24.8725 38.765 24.21V22.5075C38.765 21.8475 39.1925 21.7825 39.3825 21.7825H48.475C48.8375 21.7825 48.965 21.635 49.05 21.5075C49.1775 21.2925 49.24 20.995 49.24 20.6125V18.78C49.24 17.7375 48.815 17.61 48.495 17.61H42.1075C41.215 17.61 40.235 17.48 39.575 16.6075C39.0425 15.8625 38.745 14.67 38.745 13.2V11.5825C38.745 10.3475 39.02 9.32503 39.575 8.55753C40.1275 7.77003 40.98 7.38503 42.15 7.38503H51.3275C51.4975 7.38503 51.925 7.45003 51.925 8.11003V9.81503C51.925 10.475 51.4975 10.5375 51.3275 10.5375H42.6625C42.3 10.5375 42.1725 10.6875 42.0875 10.815C41.98 11.0275 41.9175 11.325 41.9175 11.71V13.285C41.9175 14.33 42.3225 14.4575 42.64 14.4575H49.0275ZM71.9625 8.94003C72.39 9.47253 72.6875 10.175 72.88 11.0275C73.05 11.8575 73.155 12.88 73.155 14.0525V18.27C73.155 19.4625 73.05 20.485 72.88 21.315C72.6875 22.1675 72.39 22.87 71.9625 23.4225C71.5375 23.955 70.985 24.36 70.3025 24.595C69.6425 24.83 68.8325 24.9575 67.8975 24.9575H62.7025C61.765 24.9575 60.955 24.83 60.3175 24.595C59.635 24.36 59.0825 23.955 58.6575 23.4025C58.2525 22.87 57.9325 22.1675 57.74 21.315C57.55 20.485 57.465 19.4625 57.465 18.27V14.0525C57.465 12.86 57.55 11.8575 57.74 11.0275C57.9325 10.175 58.2525 9.47253 58.6575 8.94003C59.0825 8.40753 59.635 8.00253 60.3175 7.74753C60.9775 7.51503 61.765 7.38503 62.7025 7.38503H67.8975C68.8325 7.38503 69.6425 7.51503 70.3025 7.74753C70.985 8.00253 71.5375 8.40753 71.9625 8.94003ZM69.9825 13.69C69.9825 13.0725 69.9625 12.54 69.8775 12.115C69.8125 11.71 69.685 11.39 69.515 11.155C69.365 10.9425 69.1525 10.7925 68.875 10.6875C68.6 10.6025 68.2375 10.5375 67.79 10.5375H62.8075C62.36 10.5375 62 10.6025 61.7225 10.6875C61.445 10.7925 61.2325 10.9425 61.0825 11.155C60.9125 11.39 60.8075 11.71 60.7225 12.115C60.6575 12.54 60.615 13.0725 60.615 13.69V18.6525C60.615 19.27 60.6575 19.8025 60.7225 20.2275C60.8075 20.6125 60.9125 20.9525 61.0825 21.165C61.2325 21.4 61.445 21.55 61.7225 21.635C62 21.74 62.36 21.7825 62.8075 21.7825H67.79C68.2375 21.7825 68.6 21.74 68.875 21.635C69.1525 21.55 69.365 21.4 69.515 21.165C69.685 20.9525 69.8125 20.6125 69.8775 20.2275C69.9625 19.8025 69.9825 19.27 69.9825 18.6525V13.69ZM90.5125 21.7825C90.705 21.7825 91.11 21.8675 91.11 22.5275V24.21C91.11 24.8725 90.705 24.9575 90.5125 24.9575H83.4875C82.55 24.9575 81.74 24.83 81.1025 24.595C80.42 24.36 79.8675 23.955 79.4425 23.4025C79.015 22.87 78.7175 22.1675 78.525 21.315C78.335 20.485 78.2275 19.4625 78.2275 18.27V8.13253C78.2275 7.45003 78.655 7.38503 78.845 7.38503H80.805C80.975 7.38503 81.4 7.45003 81.4 8.13253V18.63C81.4 19.27 81.4225 19.8025 81.5075 20.2275C81.57 20.6125 81.6975 20.9325 81.8675 21.165C82.0175 21.4 82.23 21.55 82.485 21.635C82.785 21.74 83.145 21.7825 83.5925 21.7825H90.5125ZM107.592 9.36753L113.577 24.125C113.662 24.3175 113.683 24.51 113.64 24.6375C113.598 24.7425 113.512 24.9575 113.173 24.9575H110.893C110.595 24.9575 110.382 24.785 110.275 24.4875L104.995 11.305L104.975 11.2625H104.89C104.89 11.2625 104.868 11.2825 104.847 11.325L102.123 18.2275H104.762C105.037 18.2275 105.272 18.3975 105.38 18.6525L106.145 20.5475C106.21 20.76 106.188 20.995 106.06 21.165C105.955 21.3575 105.74 21.465 105.507 21.465H100.845L99.63 24.51C99.525 24.785 99.31 24.9575 99.035 24.9575H96.6925C96.3525 24.9575 96.245 24.765 96.225 24.6375C96.1825 24.51 96.2025 24.3175 96.2675 24.125L102.208 9.36753C102.505 8.60003 102.825 8.09003 103.143 7.81253C103.228 7.74753 103.335 7.66253 103.463 7.60003C103.89 7.30003 104.4 7.15253 104.933 7.15253C106.103 7.15253 107.125 7.94003 107.465 9.04753L107.592 9.36753ZM133.68 24.02C133.765 24.1475 133.788 24.3175 133.765 24.53C133.723 24.785 133.53 24.9575 133.275 24.9575H130.933C130.743 24.9575 130.592 24.915 130.488 24.83C130.403 24.765 130.338 24.6575 130.253 24.53L126.397 17.695H121.905V24.21C121.905 24.8725 121.503 24.9575 121.31 24.9575H119.372C119.18 24.9575 118.755 24.8725 118.755 24.21V15.265C118.755 14.605 119.18 14.5425 119.372 14.5425H128.635C129.188 14.5425 129.55 14.3925 129.763 14.0725C129.998 13.755 130.103 13.2425 130.103 12.54C130.103 11.8375 129.998 11.325 129.763 11.0075C129.55 10.6875 129.188 10.5375 128.635 10.5375H119.372C119.18 10.5375 118.755 10.475 118.755 9.81503V8.13253C118.755 7.45003 119.18 7.38503 119.372 7.38503H129.188C130.635 7.38503 131.7 7.83253 132.338 8.75003C132.912 9.62253 133.232 10.8575 133.275 12.475V12.605C133.232 14.245 132.912 15.48 132.34 16.33C131.808 17.055 130.998 17.5025 129.955 17.63L133.68 24.02Z" fill="white"/>
<path d="M12.2149 31.51C12.4449 31.6175 12.6824 31.7125 12.9249 31.79L13.0299 31.825C13.2599 31.895 13.4949 31.95 13.7349 31.99H13.8424C14.3374 32.0675 14.8424 32.0675 15.3374 31.99H15.4524C15.6874 31.9525 15.9199 31.9 16.1474 31.83L16.2774 31.79C16.5074 31.7175 16.7349 31.6275 16.9549 31.5275L17.0524 31.48C17.2749 31.3725 17.4899 31.2525 17.6999 31.12L17.7499 31.09C17.9699 30.95 18.1824 30.795 18.3874 30.6325L18.5074 30.535C18.7049 30.37 18.8974 30.1925 19.0799 30.0025L19.2049 29.875C19.3949 29.68 19.5849 29.475 19.7799 29.2575L19.8599 29.155C20.0324 28.9425 20.1974 28.725 20.3574 28.495L20.4149 28.415C18.5674 28.31 16.7424 27.965 14.9824 27.395C14.7399 27.3175 14.4799 27.3175 14.2374 27.395C12.4774 27.97 10.6499 28.3175 8.79993 28.425C9.65243 29.7325 10.8299 30.795 12.2149 31.51Z" fill="white"/>
<path d="M0.00998883 21.765C0.0324888 22.0075 0.067489 22.25 0.119989 22.4875L0.147489 22.62C0.202489 22.85 0.269989 23.08 0.354989 23.3025L0.399989 23.41C0.579989 23.875 0.832489 24.31 1.14499 24.7L1.21999 24.7925C1.36749 24.975 1.52999 25.1475 1.69999 25.3075L1.80499 25.405C1.98499 25.565 2.17749 25.715 2.37749 25.8525L2.46749 25.915C2.66499 26.0475 2.86749 26.17 3.07499 26.2825L3.14999 26.3225C3.37499 26.4375 3.60999 26.54 3.84499 26.6375L4.00499 26.7C4.23999 26.7875 4.48499 26.8675 4.73749 26.935L4.92749 26.9825C5.18499 27.05 5.44749 27.1075 5.72249 27.1525H5.85999C6.11249 27.195 6.36999 27.2275 6.63499 27.25H6.75999C6.55499 26.85 6.36249 26.43 6.18749 25.995C6.08249 25.77 6.13249 25.5025 6.31499 25.3325C6.49499 25.1625 6.76749 25.13 6.98499 25.25C7.10249 25.31 7.19499 25.41 7.24749 25.5325C7.39999 25.895 7.56249 26.245 7.73499 26.58C7.96249 27.025 8.43249 27.2925 8.93249 27.2575C9.93999 27.1875 10.94 27.04 11.9225 26.815C12.0475 26.7825 12.1375 26.6775 12.15 26.55C12.165 26.4225 12.1 26.3 11.9875 26.2425C11.1375 25.8575 10.295 25.435 9.46999 24.9525C6.06999 23.075 3.15499 20.43 0.954989 17.225L0.922489 17.3C0.794989 17.575 0.679989 17.845 0.582489 18.115V18.1725C0.479989 18.4475 0.394989 18.745 0.319989 18.9975L0.279989 19.135C0.209989 19.3975 0.154989 19.66 0.112489 19.92V20.0575C0.0724887 20.3175 0.0474889 20.58 0.0324888 20.8425V20.9C0.0199888 21.1475 0.0199888 21.3975 0.0324888 21.645C0.00498883 21.685 0.00498883 21.715 0.00998883 21.765Z" fill="white"/>
<path d="M14.685 6.01008H14.605C13.015 6.56758 11.48 7.27508 10.02 8.11758C6.715 9.94758 3.895 12.5426 1.7975 15.6851C1.66499 15.8976 1.66499 16.1701 1.7975 16.3826C2.58 17.6301 3.5025 18.7826 4.5425 19.8226C4.38 18.5651 4.3 17.3001 4.3025 16.0351V14.9726C4.3075 14.8401 4.36 14.7126 4.45 14.6126C4.615 14.4426 4.865 14.3901 5.0825 14.4801C5.3 14.5701 5.44 14.7851 5.4375 15.0201V16.0451C5.435 17.5976 5.5675 19.1476 5.8325 20.6776C5.8775 20.9351 6.015 21.1676 6.215 21.3351C7.41 22.3226 8.6875 23.2076 10.0325 23.9776C13.165 25.8526 16.6825 26.9851 20.3175 27.2901C20.8125 27.3101 21.2725 27.0351 21.4925 26.5926C21.9525 25.6526 22.335 24.6801 22.6375 23.6801C22.675 23.5626 22.63 23.4351 22.53 23.3651C22.4275 23.2976 22.295 23.3001 22.1975 23.3751C21.415 23.9476 20.6075 24.4801 19.7725 24.9701C19.515 25.1176 19.2525 25.2551 18.9875 25.3951C18.8575 25.4626 18.7075 25.4801 18.565 25.4401C18.35 25.3676 18.1975 25.1751 18.1775 24.9501C18.155 24.7251 18.27 24.5076 18.4675 24.3976C18.72 24.2626 18.97 24.1226 19.2175 23.9776C20.575 23.1951 21.86 22.2951 23.0625 21.2901C23.24 21.1426 23.36 20.9401 23.4075 20.7176C23.6675 19.1701 23.7925 17.6026 23.785 16.0351V14.7901C23.7825 14.5751 23.9 14.3776 24.09 14.2776C24.28 14.1776 24.5075 14.1926 24.685 14.3151C24.8075 14.4176 24.8825 14.5676 24.89 14.7276C24.89 15.1501 24.92 15.5751 24.92 16.0051C24.9875 19.8901 24.1475 23.7376 22.4675 27.2401H22.5925C22.8575 27.2126 23.115 27.1801 23.365 27.1426H23.4975C23.7725 27.0951 24.0375 27.0326 24.3 26.9651L24.4825 26.9176C24.735 26.8501 24.98 26.7701 25.2175 26.6776L25.3775 26.6151C25.6175 26.5176 25.8525 26.4151 26.0775 26.3001L26.15 26.2601C26.3625 26.1451 26.5675 26.0226 26.765 25.8876L26.855 25.8301C27.055 25.6901 27.2475 25.5401 27.43 25.3776L27.5325 25.2801C27.7025 25.1176 27.865 24.9451 28.0125 24.7626L28.0875 24.6726C28.4 24.2826 28.6525 23.8476 28.8325 23.3826L28.8775 23.2726C28.9625 23.0501 29.03 22.8226 29.085 22.5901L29.1125 22.4601C29.1625 22.2301 29.2 21.9976 29.2225 21.7651V21.6676C29.235 21.4201 29.235 21.1701 29.2225 20.9226V20.8651C29.215 20.5926 29.195 20.3176 29.16 20.0451V19.9076C29.1175 19.6476 29.0625 19.3876 28.9925 19.1226L28.9425 18.9926C28.8675 18.7226 28.78 18.4476 28.6775 18.1726V18.1026C28.58 17.8326 28.465 17.5651 28.34 17.2951L28.305 17.2201C27.9225 17.8151 27.5075 18.3901 27.0625 18.9401C26.9425 19.0801 26.75 19.1351 26.575 19.0776C26.4 19.0176 26.2775 18.8601 26.265 18.6751V18.2926C26.2575 18.1826 26.2925 18.0726 26.3625 17.9876C27.2575 16.8176 27.2325 15.1851 26.3 14.0451C24.3225 11.6351 21.915 9.61758 19.2 8.09008C18.4775 7.67758 17.7575 7.30508 17.035 6.94258C17.515 6.77008 18.0475 6.60008 18.6325 6.44508C19.015 6.64258 19.3975 6.85258 19.78 7.07008C20.8675 7.69758 21.915 8.39508 22.9125 9.15508C22.56 7.82508 22.07 6.53258 21.4475 5.30508C21.2625 4.93758 20.8825 4.71258 20.4725 4.73008C18.505 4.85508 16.565 5.25258 14.7075 5.91758L14.685 6.01008ZM10.0325 11.1326L11.9175 11.7801C11.9975 11.8101 12.0575 11.8776 12.075 11.9601C12.095 12.0426 12.07 12.1276 12.01 12.1876L10.7725 13.4251C10.7125 13.4851 10.625 13.5101 10.5425 13.4926C10.46 13.4726 10.3925 13.4151 10.365 13.3351L9.705 11.4476C9.67 11.3551 9.6925 11.2501 9.76499 11.1826C9.835 11.1126 9.9425 11.0951 10.0325 11.1326ZM7.895 16.2626C7.8125 16.2226 7.7575 16.1351 7.7575 16.0426C7.7575 15.9501 7.8125 15.8626 7.895 15.8226L9.6825 14.9451C9.7575 14.9076 9.8475 14.9126 9.92 14.9551C9.9925 15.0001 10.0375 15.0776 10.0375 15.1626V16.9176C10.0375 17.0001 9.9925 17.0801 9.92 17.1226C9.8475 17.1676 9.7575 17.1726 9.6825 17.1351L7.895 16.2626ZM11.905 20.3101L10.0325 20.9526C9.945 20.9801 9.8475 20.9551 9.7825 20.8901C9.7175 20.8251 9.695 20.7301 9.7225 20.6426L10.37 18.7576C10.3975 18.6776 10.465 18.6176 10.5475 18.5976C10.63 18.5801 10.7175 18.6051 10.7775 18.6651L12.015 19.9026C12.075 19.9651 12.0975 20.0526 12.075 20.1376C12.0525 20.2201 11.9875 20.2851 11.905 20.3101ZM15.7175 20.9801L14.84 22.7676C14.7975 22.8526 14.7125 22.9051 14.62 22.9051C14.525 22.9051 14.44 22.8526 14.3975 22.7676L13.5225 20.9801C13.485 20.9051 13.4875 20.8151 13.5325 20.7426C13.5775 20.6701 13.655 20.6251 13.74 20.6251H15.4925C15.5775 20.6251 15.655 20.6701 15.7 20.7426C15.745 20.8151 15.7475 20.9051 15.71 20.9801H15.7175ZM19.2175 20.9801L17.3325 20.3326C17.2525 20.3051 17.1925 20.2376 17.175 20.1551C17.155 20.0726 17.18 19.9851 17.24 19.9251L18.4775 18.6876C18.5375 18.6276 18.625 18.6026 18.7075 18.6201C18.79 18.6401 18.8575 18.7001 18.885 18.7801L19.5275 20.6201C19.575 20.7126 19.555 20.8276 19.4825 20.9026C19.4075 20.9776 19.295 20.9976 19.2 20.9526L19.2175 20.9801ZM21.3425 15.8501C21.4275 15.8926 21.48 15.9776 21.48 16.0701C21.48 16.1651 21.4275 16.2501 21.3425 16.2926L19.555 17.1676C19.48 17.2051 19.39 17.2026 19.3175 17.1576C19.245 17.1126 19.2025 17.0351 19.2 16.9501V15.1676C19.2025 15.0826 19.245 15.0051 19.3175 14.9626C19.39 14.9176 19.48 14.9126 19.555 14.9501L21.3425 15.8501ZM17.3325 11.8026L19.2 11.1326C19.2875 11.1051 19.385 11.1276 19.45 11.1926C19.515 11.2601 19.5375 11.3551 19.51 11.4426L18.8625 13.3276C18.835 13.4076 18.7675 13.4676 18.685 13.4876C18.6025 13.5051 18.515 13.4801 18.455 13.4201L17.2175 12.1826C17.16 12.1201 17.14 12.0326 17.1625 11.9526C17.185 11.8701 17.2475 11.8051 17.3275 11.7801L17.3325 11.8026ZM18.055 16.0351C18.055 17.9326 16.515 19.4726 14.6175 19.4726C12.7175 19.4726 11.1775 17.9326 11.1775 16.0351C11.1775 14.1351 12.7175 12.5951 14.6175 12.5951C16.515 12.5951 18.055 14.1351 18.055 16.0351ZM14.835 9.32258L15.71 11.1101C15.7475 11.1851 15.745 11.2751 15.7 11.3476C15.655 11.4201 15.5775 11.4651 15.4925 11.4651H13.74C13.655 11.4651 13.5775 11.4201 13.5325 11.3476C13.4875 11.2751 13.485 11.1851 13.5225 11.1101L14.3975 9.32258C14.4425 9.24008 14.525 9.19008 14.6175 9.19008C14.7075 9.19008 14.7925 9.24008 14.835 9.32258Z" fill="white"/>
<path d="M0.0674855 12.0226V12.1601C0.109985 12.4201 0.164985 12.6801 0.234986 12.9451L0.274986 13.0826C0.347486 13.3576 0.434986 13.6551 0.537486 13.9076V13.9651C0.639985 14.2351 0.754986 14.5026 0.874986 14.7776L0.909985 14.8526C2.01999 13.1901 3.35499 11.6876 4.87499 10.3876C5.25249 8.45005 5.88999 6.57255 6.77249 4.80505C4.94499 4.87755 3.19249 5.54755 1.77999 6.70755L1.71249 6.77005C1.53249 6.94005 1.36499 7.12005 1.20749 7.31005L1.14499 7.39005C0.832485 7.78005 0.579985 8.21755 0.399985 8.68505L0.354986 8.79505C0.269985 9.01755 0.202485 9.24505 0.147486 9.47755L0.119985 9.60755C0.0699854 9.83755 0.0324853 10.0701 0.00998535 10.3026V10.3926C-0.00251465 10.6426 -0.00251465 10.8901 0.00998535 11.1401V11.1951C0.0149854 11.4726 0.0349854 11.7476 0.0674855 12.0226Z" fill="white"/>
<path d="M9.46 7.09755C10.285 6.62255 11.12 6.19255 11.97 5.81505C12.0725 5.74755 12.1275 5.62755 12.115 5.50505C12.1 5.38505 12.0175 5.28005 11.9 5.24005C11.4225 5.13505 10.95 5.04505 10.485 4.97255C10.2925 4.93505 10.1325 4.80255 10.06 4.62255C9.9875 4.44255 10.0125 4.23755 10.125 4.07755C10.25 3.90505 10.4575 3.81755 10.6675 3.84755C11.8975 4.03505 13.1075 4.32005 14.29 4.70255C14.4975 4.76755 14.7225 4.76755 14.9325 4.70255C16.71 4.12005 18.5575 3.77005 20.4275 3.66505L20.3925 3.61755C20.2175 3.36755 20.035 3.12755 19.8475 2.90255L19.7975 2.83255C19.6075 2.61005 19.4175 2.39755 19.2225 2.19755L19.115 2.08755C18.92 1.89755 18.7275 1.71755 18.5425 1.55005L18.4325 1.46255C18.22 1.28255 17.9975 1.11505 17.7675 0.960046H17.7275C17.5175 0.812546 17.3 0.680046 17.075 0.557547L16.9825 0.512546C16.7625 0.410046 16.5375 0.322546 16.3075 0.247547L16.175 0.207547C15.9475 0.140046 15.715 0.0875465 15.4825 0.0475464H15.3675C14.9175 -0.0149536 14.4625 -0.0149536 14.015 0.0475464H13.855C13.6825 0.0475464 13.515 0.105046 13.345 0.145046H13.2525C13.0575 0.197547 12.8675 0.262546 12.68 0.335047L12.5425 0.392546C12.385 0.457547 12.23 0.527547 12.0725 0.605046L11.9525 0.660046C11.765 0.760046 11.5725 0.870046 11.38 0.987547L11.2925 1.04505C11.1375 1.15255 10.98 1.26755 10.8225 1.39005L10.715 1.47505C10.3475 1.79005 10.0025 2.13255 9.6875 2.50005L9.6075 2.59255C9.26 2.99255 8.9375 3.41755 8.645 3.86005L8.605 3.91755C7.57 5.54005 6.7975 7.31505 6.3125 9.17755C7.3175 8.41755 8.3675 7.72255 9.46 7.09755Z" fill="white"/>
<path d="M24.535 10.5301C25.9675 11.7976 27.225 13.2451 28.2775 14.8426C28.55 14.2601 28.7725 13.6551 28.9425 13.0351V12.9501C29.015 12.6701 29.0725 12.3951 29.12 12.1251V12.0276C29.1625 11.7551 29.19 11.4826 29.205 11.2076C29.22 10.9476 29.22 10.6876 29.205 10.4276V10.3526C29.185 10.1101 29.1475 9.86507 29.0975 9.62507V9.50007C29.0425 9.26757 28.9725 9.04007 28.89 8.81757L28.845 8.71507C28.6625 8.24757 28.4125 7.81257 28.1 7.42507L28.03 7.33257C27.88 7.15007 27.7175 6.97757 27.5425 6.81757L27.44 6.72007C27.2575 6.55757 27.0675 6.40507 26.8675 6.26757L26.775 6.20257C26.575 6.06757 26.37 5.94507 26.1575 5.83007L26.0775 5.76757C25.8525 5.65257 25.6175 5.55007 25.3725 5.45257L25.2175 5.39007C24.98 5.30257 24.735 5.22257 24.4775 5.15007L24.295 5.10257C24.03 5.03507 23.7675 4.97757 23.4925 4.92507H23.36C23.105 4.88257 22.84 4.85007 22.57 4.82257H22.455C23.3075 6.52507 23.9325 8.33257 24.3125 10.2001C24.35 10.3301 24.4275 10.4451 24.535 10.5301Z" fill="white"/>
</g>
<defs>
<clipPath id="clip0_881_6039">
<rect width="133.76" height="32" fill="white"/>
</clipPath>
</defs>
</svg>
